<mxfile host="app.diagrams.net" modified="2022-04-28T01:07:23.801Z" agent="5.0 (Windows NT 10.0; Win64; x64) AppleWebKit/537.36 (KHTML, like Gecko) Chrome/101.0.4951.41 Safari/537.36" etag="vGny8v2VrKWeOgJ7o1I7" version="17.4.6" type="github">
  <diagram id="iq07SKscOIAAzQOcwrQh" name="Page-1">
    <mxGraphModel dx="3787" dy="1560" grid="1" gridSize="10" guides="1" tooltips="1" connect="1" arrows="1" fold="1" page="1" pageScale="1" pageWidth="827" pageHeight="1169" math="0" shadow="0">
      <root>
        <mxCell id="0" />
        <mxCell id="1" parent="0" />
        <mxCell id="USZDuvQIUMrducS3ylU_-14" style="edgeStyle=elbowEdgeStyle;rounded=0;orthogonalLoop=1;jettySize=auto;html=1;" edge="1" parent="1" source="USZDuvQIUMrducS3ylU_-13">
          <mxGeometry relative="1" as="geometry">
            <mxPoint x="360" y="1690" as="targetPoint" />
            <Array as="points">
              <mxPoint x="960" y="1690" />
              <mxPoint x="780" y="1710" />
              <mxPoint x="1050" y="1740" />
            </Array>
          </mxGeometry>
        </mxCell>
        <mxCell id="USZDuvQIUMrducS3ylU_-2" style="edgeStyle=orthogonalEdgeStyle;rounded=0;orthogonalLoop=1;jettySize=auto;html=1;entryX=0.499;entryY=-0.047;entryDx=0;entryDy=0;entryPerimeter=0;" edge="1" parent="1" source="5f8sX0Bq_aljjryXhuVn-1" target="5f8sX0Bq_aljjryXhuVn-2">
          <mxGeometry relative="1" as="geometry" />
        </mxCell>
        <mxCell id="5f8sX0Bq_aljjryXhuVn-1" value="INICIO" style="rounded=1;whiteSpace=wrap;html=1;" parent="1" vertex="1">
          <mxGeometry x="300" y="40" width="120" height="40" as="geometry" />
        </mxCell>
        <mxCell id="USZDuvQIUMrducS3ylU_-4" style="edgeStyle=orthogonalEdgeStyle;rounded=0;orthogonalLoop=1;jettySize=auto;html=1;entryX=0.5;entryY=0;entryDx=0;entryDy=0;" edge="1" parent="1" source="5f8sX0Bq_aljjryXhuVn-2" target="5f8sX0Bq_aljjryXhuVn-3">
          <mxGeometry relative="1" as="geometry" />
        </mxCell>
        <mxCell id="5f8sX0Bq_aljjryXhuVn-2" value="&lt;pre style=&quot;overflow-wrap: break-word&quot;&gt;H_horas, H_horasExtras, H_horasFaltas, H_minutos, H_premio : real&lt;/pre&gt;" style="shape=parallelogram;perimeter=parallelogramPerimeter;whiteSpace=wrap;html=1;fixedSize=1;" parent="1" vertex="1">
          <mxGeometry x="120" y="120" width="480" height="50" as="geometry" />
        </mxCell>
        <mxCell id="USZDuvQIUMrducS3ylU_-6" style="edgeStyle=orthogonalEdgeStyle;rounded=0;orthogonalLoop=1;jettySize=auto;html=1;entryX=0.502;entryY=-0.067;entryDx=0;entryDy=0;entryPerimeter=0;" edge="1" parent="1" source="5f8sX0Bq_aljjryXhuVn-3" target="5f8sX0Bq_aljjryXhuVn-4">
          <mxGeometry relative="1" as="geometry" />
        </mxCell>
        <mxCell id="5f8sX0Bq_aljjryXhuVn-3" value="&lt;pre style=&quot;overflow-wrap: break-word&quot;&gt;leia (H_horasExtras)&lt;/pre&gt;" style="rounded=0;whiteSpace=wrap;html=1;" parent="1" vertex="1">
          <mxGeometry x="260" y="210" width="200" height="30" as="geometry" />
        </mxCell>
        <mxCell id="USZDuvQIUMrducS3ylU_-7" style="edgeStyle=orthogonalEdgeStyle;rounded=0;orthogonalLoop=1;jettySize=auto;html=1;entryX=0.5;entryY=0;entryDx=0;entryDy=0;" edge="1" parent="1" source="5f8sX0Bq_aljjryXhuVn-4" target="5f8sX0Bq_aljjryXhuVn-5">
          <mxGeometry relative="1" as="geometry" />
        </mxCell>
        <mxCell id="5f8sX0Bq_aljjryXhuVn-4" value="&lt;pre style=&quot;overflow-wrap: break-word&quot;&gt;&lt;pre style=&quot;overflow-wrap: break-word&quot;&gt;leia (H_horasFaltas)&lt;/pre&gt;&lt;/pre&gt;" style="rounded=0;whiteSpace=wrap;html=1;" parent="1" vertex="1">
          <mxGeometry x="260" y="280" width="200" height="30" as="geometry" />
        </mxCell>
        <mxCell id="USZDuvQIUMrducS3ylU_-8" style="edgeStyle=orthogonalEdgeStyle;rounded=0;orthogonalLoop=1;jettySize=auto;html=1;exitX=0.5;exitY=1;exitDx=0;exitDy=0;" edge="1" parent="1" source="5f8sX0Bq_aljjryXhuVn-5" target="5f8sX0Bq_aljjryXhuVn-6">
          <mxGeometry relative="1" as="geometry" />
        </mxCell>
        <mxCell id="5f8sX0Bq_aljjryXhuVn-5" value="&lt;pre style=&quot;overflow-wrap: break-word&quot;&gt;H_horas &amp;lt;- ( H_horasExtras - (2/3) * H_horasFaltas)&lt;/pre&gt;" style="shape=parallelogram;perimeter=parallelogramPerimeter;whiteSpace=wrap;html=1;fixedSize=1;" parent="1" vertex="1">
          <mxGeometry x="160" y="340" width="400" height="40" as="geometry" />
        </mxCell>
        <mxCell id="5f8sX0Bq_aljjryXhuVn-8" value="SE" style="edgeStyle=orthogonalEdgeStyle;rounded=0;orthogonalLoop=1;jettySize=auto;html=1;entryX=0.5;entryY=0;entryDx=0;entryDy=0;" parent="1" source="5f8sX0Bq_aljjryXhuVn-6" edge="1">
          <mxGeometry relative="1" as="geometry">
            <mxPoint x="360" y="520" as="targetPoint" />
            <Array as="points">
              <mxPoint x="360" y="480" />
              <mxPoint x="360" y="480" />
            </Array>
          </mxGeometry>
        </mxCell>
        <mxCell id="5f8sX0Bq_aljjryXhuVn-6" value="&lt;pre style=&quot;overflow-wrap: break-word&quot;&gt;&lt;pre style=&quot;overflow-wrap: break-word&quot;&gt;&lt;br&gt;&lt;/pre&gt;&lt;pre style=&quot;overflow-wrap: break-word&quot;&gt;H_minutos &amp;lt;- H_horas * 60&lt;br&gt;&lt;/pre&gt;&lt;div&gt;&lt;br&gt;&lt;/div&gt;&lt;/pre&gt;" style="shape=parallelogram;perimeter=parallelogramPerimeter;whiteSpace=wrap;html=1;fixedSize=1;" parent="1" vertex="1">
          <mxGeometry x="240" y="410" width="240" height="40" as="geometry" />
        </mxCell>
        <mxCell id="USZDuvQIUMrducS3ylU_-10" value="SENAO" style="edgeStyle=orthogonalEdgeStyle;rounded=0;orthogonalLoop=1;jettySize=auto;html=1;entryX=0.5;entryY=0;entryDx=0;entryDy=0;" edge="1" parent="1" source="5f8sX0Bq_aljjryXhuVn-9" target="5f8sX0Bq_aljjryXhuVn-11">
          <mxGeometry relative="1" as="geometry" />
        </mxCell>
        <mxCell id="USZDuvQIUMrducS3ylU_-20" value="ENTAO" style="edgeStyle=orthogonalEdgeStyle;rounded=0;orthogonalLoop=1;jettySize=auto;html=1;exitX=1;exitY=0.5;exitDx=0;exitDy=0;" edge="1" parent="1" source="5f8sX0Bq_aljjryXhuVn-9" target="USZDuvQIUMrducS3ylU_-15">
          <mxGeometry relative="1" as="geometry" />
        </mxCell>
        <mxCell id="5f8sX0Bq_aljjryXhuVn-9" value="&lt;pre style=&quot;overflow-wrap: break-word&quot;&gt;&lt;pre style=&quot;overflow-wrap: break-word&quot;&gt;&lt;pre style=&quot;overflow-wrap: break-word&quot;&gt;(H_minutos &amp;gt;= 600) e (H_minutos &amp;lt; 1200.00)&lt;/pre&gt;&lt;/pre&gt;&lt;/pre&gt;" style="rhombus;whiteSpace=wrap;html=1;" parent="1" vertex="1">
          <mxGeometry x="200" y="760" width="320" height="160" as="geometry" />
        </mxCell>
        <mxCell id="USZDuvQIUMrducS3ylU_-9" value="SENAO" style="edgeStyle=orthogonalEdgeStyle;rounded=0;orthogonalLoop=1;jettySize=auto;html=1;entryX=0.5;entryY=0;entryDx=0;entryDy=0;" edge="1" parent="1" source="5f8sX0Bq_aljjryXhuVn-10" target="5f8sX0Bq_aljjryXhuVn-9">
          <mxGeometry relative="1" as="geometry" />
        </mxCell>
        <mxCell id="USZDuvQIUMrducS3ylU_-19" value="ENTAO" style="edgeStyle=orthogonalEdgeStyle;rounded=0;orthogonalLoop=1;jettySize=auto;html=1;" edge="1" parent="1" source="5f8sX0Bq_aljjryXhuVn-10" target="USZDuvQIUMrducS3ylU_-13">
          <mxGeometry relative="1" as="geometry">
            <Array as="points">
              <mxPoint x="560" y="600" />
              <mxPoint x="560" y="600" />
            </Array>
          </mxGeometry>
        </mxCell>
        <mxCell id="5f8sX0Bq_aljjryXhuVn-10" value="&lt;pre style=&quot;overflow-wrap: break-word&quot;&gt;&lt;pre style=&quot;overflow-wrap: break-word&quot;&gt;&lt;pre style=&quot;overflow-wrap: break-word&quot;&gt;H_minutos &amp;lt; 600&lt;/pre&gt;&lt;/pre&gt;&lt;/pre&gt;" style="rhombus;whiteSpace=wrap;html=1;" parent="1" vertex="1">
          <mxGeometry x="200" y="520" width="320" height="160" as="geometry" />
        </mxCell>
        <mxCell id="USZDuvQIUMrducS3ylU_-11" value="SENAO" style="edgeStyle=orthogonalEdgeStyle;rounded=0;orthogonalLoop=1;jettySize=auto;html=1;" edge="1" parent="1" source="5f8sX0Bq_aljjryXhuVn-11" target="5f8sX0Bq_aljjryXhuVn-13">
          <mxGeometry relative="1" as="geometry">
            <Array as="points">
              <mxPoint x="360" y="1200" />
              <mxPoint x="360" y="1200" />
            </Array>
          </mxGeometry>
        </mxCell>
        <mxCell id="USZDuvQIUMrducS3ylU_-21" value="ENTAO" style="edgeStyle=orthogonalEdgeStyle;rounded=0;orthogonalLoop=1;jettySize=auto;html=1;exitX=1;exitY=0.5;exitDx=0;exitDy=0;" edge="1" parent="1" source="5f8sX0Bq_aljjryXhuVn-11" target="USZDuvQIUMrducS3ylU_-16">
          <mxGeometry relative="1" as="geometry">
            <mxPoint x="570" y="1080" as="targetPoint" />
          </mxGeometry>
        </mxCell>
        <mxCell id="5f8sX0Bq_aljjryXhuVn-11" value="&lt;pre style=&quot;overflow-wrap: break-word&quot;&gt;&lt;pre style=&quot;overflow-wrap: break-word&quot;&gt;&lt;pre style=&quot;overflow-wrap: break-word&quot;&gt;(H_minutos &amp;gt;= 1200.00) e (H_minutos &amp;lt; 1800.00)&lt;/pre&gt;&lt;/pre&gt;&lt;/pre&gt;" style="rhombus;whiteSpace=wrap;html=1;" parent="1" vertex="1">
          <mxGeometry x="180" y="1000" width="360" height="160" as="geometry" />
        </mxCell>
        <mxCell id="USZDuvQIUMrducS3ylU_-12" value="SENAO" style="edgeStyle=orthogonalEdgeStyle;rounded=0;orthogonalLoop=1;jettySize=auto;html=1;entryX=0.5;entryY=0;entryDx=0;entryDy=0;" edge="1" parent="1" source="5f8sX0Bq_aljjryXhuVn-13" target="5f8sX0Bq_aljjryXhuVn-14">
          <mxGeometry relative="1" as="geometry" />
        </mxCell>
        <mxCell id="USZDuvQIUMrducS3ylU_-22" value="ENTAO" style="edgeStyle=orthogonalEdgeStyle;rounded=0;orthogonalLoop=1;jettySize=auto;html=1;exitX=1;exitY=0.5;exitDx=0;exitDy=0;entryX=0;entryY=0.5;entryDx=0;entryDy=0;" edge="1" parent="1" source="5f8sX0Bq_aljjryXhuVn-13" target="USZDuvQIUMrducS3ylU_-17">
          <mxGeometry relative="1" as="geometry">
            <Array as="points">
              <mxPoint x="600" y="1320" />
              <mxPoint x="600" y="1320" />
            </Array>
          </mxGeometry>
        </mxCell>
        <mxCell id="5f8sX0Bq_aljjryXhuVn-13" value="&lt;pre style=&quot;overflow-wrap: break-word&quot;&gt;&lt;pre style=&quot;overflow-wrap: break-word&quot;&gt;&lt;pre style=&quot;overflow-wrap: break-word&quot;&gt;&lt;pre style=&quot;overflow-wrap: break-word&quot;&gt;(H_minutos &amp;gt;= 1800.00) e (H_minutos &amp;lt; 2400.00)&lt;/pre&gt;&lt;/pre&gt;&lt;/pre&gt;&lt;/pre&gt;" style="rhombus;whiteSpace=wrap;html=1;" parent="1" vertex="1">
          <mxGeometry x="180" y="1240" width="360" height="160" as="geometry" />
        </mxCell>
        <mxCell id="USZDuvQIUMrducS3ylU_-23" value="ENTAO" style="edgeStyle=orthogonalEdgeStyle;rounded=0;orthogonalLoop=1;jettySize=auto;html=1;" edge="1" parent="1" source="5f8sX0Bq_aljjryXhuVn-14" target="USZDuvQIUMrducS3ylU_-18">
          <mxGeometry relative="1" as="geometry" />
        </mxCell>
        <mxCell id="USZDuvQIUMrducS3ylU_-24" value="FIMSE" style="edgeStyle=orthogonalEdgeStyle;rounded=0;orthogonalLoop=1;jettySize=auto;html=1;exitX=0.5;exitY=1;exitDx=0;exitDy=0;entryX=0.5;entryY=0;entryDx=0;entryDy=0;" edge="1" parent="1" source="5f8sX0Bq_aljjryXhuVn-14" target="USZDuvQIUMrducS3ylU_-25">
          <mxGeometry relative="1" as="geometry">
            <mxPoint x="359.7586206896551" y="1800" as="targetPoint" />
            <Array as="points" />
          </mxGeometry>
        </mxCell>
        <mxCell id="5f8sX0Bq_aljjryXhuVn-14" value="&lt;pre style=&quot;overflow-wrap: break-word&quot;&gt;&lt;pre style=&quot;overflow-wrap: break-word&quot;&gt;&lt;pre style=&quot;overflow-wrap: break-word&quot;&gt;&lt;pre style=&quot;overflow-wrap: break-word&quot;&gt;&lt;pre style=&quot;overflow-wrap: break-word&quot;&gt;H_minutos &amp;gt;= 2400.00&lt;/pre&gt;&lt;/pre&gt;&lt;/pre&gt;&lt;/pre&gt;&lt;/pre&gt;" style="rhombus;whiteSpace=wrap;html=1;" parent="1" vertex="1">
          <mxGeometry x="180" y="1480" width="360" height="160" as="geometry" />
        </mxCell>
        <mxCell id="USZDuvQIUMrducS3ylU_-13" value="&lt;pre style=&quot;overflow-wrap: break-word&quot;&gt;H_premio &amp;lt;- 100.00&lt;/pre&gt;" style="shape=parallelogram;perimeter=parallelogramPerimeter;whiteSpace=wrap;html=1;fixedSize=1;" vertex="1" parent="1">
          <mxGeometry x="640" y="580" width="180" height="40" as="geometry" />
        </mxCell>
        <mxCell id="USZDuvQIUMrducS3ylU_-27" style="edgeStyle=orthogonalEdgeStyle;rounded=0;orthogonalLoop=1;jettySize=auto;html=1;" edge="1" parent="1" source="USZDuvQIUMrducS3ylU_-15">
          <mxGeometry relative="1" as="geometry">
            <mxPoint x="960" y="840" as="targetPoint" />
          </mxGeometry>
        </mxCell>
        <mxCell id="USZDuvQIUMrducS3ylU_-15" value="&lt;pre style=&quot;overflow-wrap: break-word&quot;&gt;H_premio &amp;lt;- 200.00&lt;/pre&gt;" style="shape=parallelogram;perimeter=parallelogramPerimeter;whiteSpace=wrap;html=1;fixedSize=1;" vertex="1" parent="1">
          <mxGeometry x="640" y="820" width="180" height="40" as="geometry" />
        </mxCell>
        <mxCell id="USZDuvQIUMrducS3ylU_-28" style="edgeStyle=orthogonalEdgeStyle;rounded=0;orthogonalLoop=1;jettySize=auto;html=1;" edge="1" parent="1" source="USZDuvQIUMrducS3ylU_-16">
          <mxGeometry relative="1" as="geometry">
            <mxPoint x="960" y="1080" as="targetPoint" />
          </mxGeometry>
        </mxCell>
        <mxCell id="USZDuvQIUMrducS3ylU_-16" value="&lt;pre style=&quot;overflow-wrap: break-word&quot;&gt;H_premio &amp;lt;- 300.00&lt;/pre&gt;" style="shape=parallelogram;perimeter=parallelogramPerimeter;whiteSpace=wrap;html=1;fixedSize=1;" vertex="1" parent="1">
          <mxGeometry x="640" y="1060" width="180" height="40" as="geometry" />
        </mxCell>
        <mxCell id="USZDuvQIUMrducS3ylU_-29" style="edgeStyle=orthogonalEdgeStyle;rounded=0;orthogonalLoop=1;jettySize=auto;html=1;" edge="1" parent="1" source="USZDuvQIUMrducS3ylU_-17">
          <mxGeometry relative="1" as="geometry">
            <mxPoint x="970" y="1320" as="targetPoint" />
          </mxGeometry>
        </mxCell>
        <mxCell id="USZDuvQIUMrducS3ylU_-17" value="&lt;pre style=&quot;overflow-wrap: break-word&quot;&gt;H_premio &amp;lt;- 400.00&lt;/pre&gt;" style="shape=parallelogram;perimeter=parallelogramPerimeter;whiteSpace=wrap;html=1;fixedSize=1;" vertex="1" parent="1">
          <mxGeometry x="640" y="1300" width="180" height="40" as="geometry" />
        </mxCell>
        <mxCell id="USZDuvQIUMrducS3ylU_-30" style="edgeStyle=orthogonalEdgeStyle;rounded=0;orthogonalLoop=1;jettySize=auto;html=1;" edge="1" parent="1" source="USZDuvQIUMrducS3ylU_-18">
          <mxGeometry relative="1" as="geometry">
            <mxPoint x="960" y="1560" as="targetPoint" />
          </mxGeometry>
        </mxCell>
        <mxCell id="USZDuvQIUMrducS3ylU_-18" value="&lt;pre style=&quot;overflow-wrap: break-word&quot;&gt;H_premio &amp;lt;- 500.00&lt;/pre&gt;" style="shape=parallelogram;perimeter=parallelogramPerimeter;whiteSpace=wrap;html=1;fixedSize=1;" vertex="1" parent="1">
          <mxGeometry x="640" y="1540" width="180" height="40" as="geometry" />
        </mxCell>
        <mxCell id="USZDuvQIUMrducS3ylU_-31" style="edgeStyle=elbowEdgeStyle;rounded=0;orthogonalLoop=1;jettySize=auto;html=1;" edge="1" parent="1" source="USZDuvQIUMrducS3ylU_-25">
          <mxGeometry relative="1" as="geometry">
            <mxPoint x="360" y="1958" as="targetPoint" />
          </mxGeometry>
        </mxCell>
        <mxCell id="USZDuvQIUMrducS3ylU_-25" value="&lt;pre style=&quot;overflow-wrap: break-word&quot;&gt;escreva (&quot;O Funcionario vai receber o premio no valor de: R$&quot;, H_premio)&lt;/pre&gt;" style="rounded=0;whiteSpace=wrap;html=1;" vertex="1" parent="1">
          <mxGeometry x="90" y="1820" width="540" height="60" as="geometry" />
        </mxCell>
        <mxCell id="USZDuvQIUMrducS3ylU_-26" value="FIMALGORITIMO" style="rounded=1;whiteSpace=wrap;html=1;" vertex="1" parent="1">
          <mxGeometry x="290" y="1960" width="140" height="70" as="geometry" />
        </mxCell>
      </root>
    </mxGraphModel>
  </diagram>
</mxfile>
